<svg width="78" height="78" viewBox="0 0 78 78" fill="none" xmlns="http://www.w3.org/2000/svg">
<path d="M39.756 56.863C38.4928 56.863 37.4564 56.4582 36.6466 55.6484C35.8369 54.8063 35.432 53.6889 35.432 52.2961C35.432 50.871 36.1446 46.8708 37.5697 40.2957C36.7276 40.1014 35.3672 40.0042 33.4886 40.0042C31.61 40.0042 29.8124 40.1662 28.0958 40.4901C26.4439 47.9397 25.5694 52.9277 25.4722 55.4541C24.3062 56.1019 21.8446 56.4258 18.0874 56.4258H17.6015C17.6987 55.0006 18.557 50.7414 20.1765 43.6481C21.8284 36.5547 22.8486 31.2266 23.2373 27.6638C23.2373 27.1455 23.0754 26.5301 22.7515 25.8176C22.4276 25.0726 22.1037 24.4734 21.7798 24.0199L21.2454 23.3398L21.3911 22.611C23.3021 22.0604 26.3305 21.7851 30.4764 21.7851C30.8651 22.4329 31.0594 23.4855 31.0594 24.943C31.0594 26.4006 30.3307 30.4169 28.8731 36.992H38.2499C39.3836 31.2266 39.9666 27.1132 39.999 24.6515C39.999 24.1009 39.9666 23.6475 39.9018 23.2912C42.493 22.2871 45.1003 21.7851 47.7239 21.7851C47.8211 21.9794 47.8696 22.4652 47.8696 23.2426C47.8696 25.024 47.0761 29.6072 45.489 36.992C43.9343 44.3768 43.157 49.0733 43.157 51.0815C43.157 51.956 43.3027 52.3933 43.5942 52.3933C43.8857 52.3933 44.8736 51.9722 46.5579 51.1301L47.4324 52.9277C44.5497 55.5513 41.9909 56.863 39.756 56.863Z" fill="#F2F2F3"/>
<path d="M45.8965 20.7686L54.8432 17.4993L59.453 15.5483C59.7211 15.9643 60.0035 16.549 60.3 17.3025C60.5966 18.056 60.6898 18.6467 60.5797 19.0746C60.4997 19.4904 60.1891 19.8067 59.6479 20.0235C59.1067 20.2402 57.9194 20.6285 56.0861 21.1883C54.2829 21.7361 52.9603 22.1786 52.1185 22.5158L50.5304 23.2565C50.8609 24.45 51.5804 28.401 52.6891 35.1095C54.8912 33.9832 56.759 33.113 58.2924 32.4989C59.8259 31.8847 61.061 31.5296 61.9978 31.4335C62.4358 32.7234 62.5922 33.9168 62.467 35.0137C61.0673 35.2603 59.4805 35.7388 57.7065 36.4493C55.9325 37.1599 54.4647 37.8524 53.3031 38.527C54.3376 44.4278 55.4123 48.7948 56.5273 51.6279L56.8298 52.3965C55.9846 53.4328 53.818 54.6495 50.3302 56.0464L49.8792 56.227C49.0726 54.1776 48.0857 49.6358 46.9186 42.6019C45.7815 35.5559 44.8058 30.5561 43.9915 27.6026C43.8017 27.1203 43.426 26.6079 42.8644 26.0652C42.2909 25.4925 41.7557 25.0613 41.2589 24.7718L40.5588 24.3196L40.4272 23.5872C41.9204 22.6054 43.7435 21.6659 45.8965 20.7686Z" fill="#AF2026"/>
</svg>
