<svg width="434" height="358" viewBox="0 0 434 358" fill="none" xmlns="http://www.w3.org/2000/svg">
<path d="M58.8701 272.953L48.6261 357.876H45.2671L55.5101 272.953H58.8701Z" fill="#D2DCFF"/>
<path d="M13.603 272.952L12.451 282.503L3.35999 357.875H0L9.13599 282.129L10.243 272.952H13.603Z" fill="#D2DCFF"/>
<path d="M58.8701 357.875H55.5101L54.0941 346.13L52.4141 332.204L46.8891 286.397L45.2671 272.952H48.6271L50.295 286.781L54.0941 318.276L55.7731 332.202L58.8701 357.875Z" fill="#D2DCFF"/>
<path d="M104.137 357.875H100.777L92.827 291.96H92.8259L90.5339 272.952H93.8939L96.231 292.327L104.137 357.875Z" fill="#D2DCFF"/>
<path d="M13.767 216.183H10.407V267.553H13.767V216.183Z" fill="#D2DCFF"/>
<path d="M59.4181 216.183H56.0591V267.553H59.4181V216.183Z" fill="#D2DCFF"/>
<path d="M95.304 267.553H49.145C50.636 267.553 51.845 268.761 51.845 270.252C51.845 271.743 50.636 272.952 49.145 272.952H95.304C96.795 272.952 98.004 271.743 98.004 270.252C98.004 268.761 96.795 267.553 95.304 267.553Z" fill="#D2DCFF"/>
<path d="M51.8451 270.252C51.8451 268.761 50.6361 267.553 49.1451 267.553H13.8381H9.2901C7.7991 267.553 6.59009 268.761 6.59009 270.252C6.59009 271.743 7.7991 272.952 9.2901 272.952H13.8381H49.1451C50.6361 272.952 51.8451 271.743 51.8451 270.252Z" fill="#86A2E2"/>
<path d="M62.163 177.524H7.66193C5.58393 177.524 3.89893 179.209 3.89893 181.286V212.42C3.89893 214.498 5.58393 216.183 7.66193 216.183H62.163C64.241 216.183 65.926 214.498 65.926 212.42V181.286C65.926 179.208 64.241 177.524 62.163 177.524Z" fill="#D2DCFF"/>
<path d="M13.603 272.952L12.4509 282.503C11.2369 282.366 10.128 282.241 9.13696 282.13L10.244 272.952H13.603Z" fill="#AEC3FF"/>
<path d="M48.6271 272.952L50.295 286.782C49.154 286.654 48.0181 286.525 46.8891 286.398L45.2671 272.952H48.6271Z" fill="#AEC3FF"/>
<path d="M96.231 292.327C95.147 292.211 94.01 292.089 92.827 291.96H92.8259L90.5339 272.952H93.8939L96.231 292.327Z" fill="#AEC3FF"/>
<path d="M10.407 216.183H13.767V223.278L10.407 222.906V216.183Z" fill="#AEC3FF"/>
<path d="M59.4181 216.183V228.331L56.0591 227.959V216.183H59.4181Z" fill="#AEC3FF"/>
<path d="M259 0.425049H197.535V75.1766H259V0.425049Z" fill="#D2DCFF"/>
<path d="M256.183 2.78723H200.351V72.8144H256.183V2.78723Z" fill="#D2DCFF"/>
<path d="M200.351 54.2571L218.52 36.0884L227.588 45.1578L244.647 28.0985L256.184 39.6355V72.8144H200.351V54.2571Z" fill="#AEC3FF"/>
<path d="M217.06 25.9031C219.749 25.9031 221.93 23.7228 221.93 21.033C221.93 18.3432 219.749 16.1625 217.06 16.1625C214.37 16.1625 212.189 18.3432 212.189 21.033C212.189 23.7228 214.37 25.9031 217.06 25.9031Z" fill="#AEC3FF"/>
<path d="M366.661 208.947V207.565C366.661 207.138 366.315 206.791 365.887 206.791H333.81C332.191 206.791 330.879 208.103 330.879 209.721V212.078C330.879 213.697 332.191 215.009 333.81 215.009H365.887C366.314 215.009 366.661 214.662 366.661 214.235V212.853C366.661 212.426 366.315 212.079 365.887 212.079H334.988C334.337 212.079 333.809 211.551 333.809 210.901C333.809 210.25 334.337 209.722 334.988 209.722H365.887C366.315 209.721 366.661 209.374 366.661 208.947Z" fill="#6277D7"/>
<path d="M365.276 209.721V212.078H334.989C334.338 212.078 333.81 211.55 333.81 210.9C333.81 210.249 334.338 209.721 334.989 209.721H365.276Z" fill="#D2DCFF"/>
<path d="M364.37 200.729V199.346C364.37 198.919 364.023 198.572 363.596 198.572H336.102C334.484 198.572 333.172 199.884 333.172 201.502V203.859C333.172 205.477 334.484 206.789 336.102 206.789H363.596C364.023 206.789 364.37 206.443 364.37 206.015V204.632C364.37 204.205 364.023 203.858 363.596 203.858H337.281C336.63 203.858 336.102 203.33 336.102 202.68C336.102 202.029 336.63 201.501 337.281 201.501H363.596C364.023 201.503 364.37 201.156 364.37 200.729Z" fill="#FE9ECC"/>
<path d="M363.35 201.503V203.86H337.28C336.629 203.86 336.101 203.332 336.101 202.682C336.101 202.031 336.629 201.503 337.28 201.503H363.35Z" fill="#FFD9E8"/>
<path d="M341.066 220.432L324.069 357.854H320.694L337.691 220.432H341.066Z" fill="#D2DCFF"/>
<path d="M385.727 357.854H382.352L367.811 240.288L365.355 220.432H368.73L371.151 240.006L385.727 357.854Z" fill="#D2DCFF"/>
<path d="M171.825 220.432L167.278 257.199L154.828 357.854H151.453L163.867 257.487L168.45 220.432H171.825Z" fill="#D2DCFF"/>
<path d="M216.486 357.854H213.111L200.317 254.413L196.114 220.432H199.489L203.657 254.131L216.486 357.854Z" fill="#D2DCFF"/>
<path d="M168.45 220.432H171.825L167.278 257.199L163.867 257.487L168.45 220.432Z" fill="#AEC3FF"/>
<path d="M199.489 220.432L203.657 254.131L200.317 254.413L196.114 220.432H199.489Z" fill="#AEC3FF"/>
<path d="M371.151 240.006L367.811 240.288L365.355 220.432H368.73L371.151 240.006Z" fill="#AEC3FF"/>
<path d="M378.128 220.432H205.563V215.009H378.128C379.374 215.009 380.384 216.019 380.384 217.265V218.176C380.385 219.422 379.374 220.432 378.128 220.432Z" fill="#D2DCFF"/>
<path d="M205.563 220.432H159.904C158.658 220.432 157.648 219.422 157.648 218.176V217.265C157.648 216.019 158.658 215.009 159.904 215.009H205.563V220.432Z" fill="#86A2E2"/>
<path d="M205.525 201.821H220.662C221.409 201.821 221.987 202.473 221.899 203.214L220.619 213.911C220.544 214.537 220.013 215.008 219.382 215.008H206.806C206.175 215.008 205.644 214.537 205.569 213.911L204.289 203.214C204.2 202.474 204.779 201.821 205.525 201.821Z" fill="#D2DCFF"/>
<path d="M218.29 197.456V192.592L215.38 198.122V189.142L213.094 194.796L210.807 189.142V198.122L207.897 192.592V197.456L203.657 190.639L205.525 201.821H213.094H220.662L222.53 190.639L218.29 197.456Z" fill="#6277D7"/>
<path d="M327.45 201.115H232.75L243.308 144.201H338.008L327.45 201.115Z" fill="#D2DCFF"/>
<path d="M279.636 175.977H290.272L304.275 215.009H285.694L279.636 175.977Z" fill="#86A2E2"/>
<path d="M279.252 212.503H247.642C247.066 212.503 246.6 212.97 246.6 213.545V213.966C246.6 214.542 247.067 215.008 247.642 215.008H279.252C279.828 215.008 280.294 214.541 280.294 213.966V213.545C280.295 212.97 279.828 212.503 279.252 212.503Z" fill="#86A2E2"/>
<path d="M279.636 175.977V201.115H283.538L279.636 175.977Z" fill="#AEC3FF"/>
<path d="M131.971 55.1101C118.881 57.2911 102.571 52.4201 100.526 49.3171C95.7868 56.5391 93.3788 56.313 93.3788 56.313V61.729L92.3088 60.6589C91.9788 59.9119 91.4548 59.1721 90.6708 59.1721C86.3608 59.1721 86.0598 71.16 93.3138 71.853C93.4568 72.323 93.6047 72.7619 93.7557 73.1589V92.3469H110.118V84.8C111.218 85.102 112.272 85.2751 113.24 85.2751C119.691 85.2751 130.684 75.789 131.93 60.658C132.005 57.804 131.971 55.1101 131.971 55.1101Z" fill="#FCBEB7"/>
<path d="M112.111 34.572C100.827 34.572 98.5697 40.5901 98.5697 40.5901C93.7547 40.5901 86.3827 49.3921 90.8217 59.1711L90.8447 59.1941L93.3797 61.729V56.313C93.3797 56.313 95.7867 56.5391 100.527 49.3171C102.572 52.4201 118.883 57.2911 131.972 55.1101C131.972 55.1101 132.006 57.8039 131.931 60.6589C131.931 60.6619 131.931 60.665 131.931 60.668C136.819 46.525 127.006 34.572 112.111 34.572Z" fill="#311643"/>
<path d="M107.259 64.79C106.76 64.79 106.356 64.386 106.356 63.887V62.2C106.356 61.701 106.76 61.2971 107.259 61.2971C107.758 61.2971 108.162 61.701 108.162 62.2V63.887C108.162 64.386 107.757 64.79 107.259 64.79Z" fill="#311643"/>
<path d="M123.997 64.79C123.498 64.79 123.094 64.386 123.094 63.887V62.2C123.094 61.701 123.498 61.2971 123.997 61.2971C124.496 61.2971 124.9 61.701 124.9 62.2V63.887C124.9 64.386 124.496 64.79 123.997 64.79Z" fill="#311643"/>
<path d="M113.896 75.3272C112.285 75.3272 111.188 74.721 110.523 74.169C109.685 73.473 109.337 72.7142 109.322 72.6822C109.228 72.4742 109.321 72.2291 109.529 72.1351C109.737 72.0411 109.981 72.1341 110.075 72.3411C110.122 72.4431 111.266 74.8431 114.591 74.4581C114.818 74.4321 115.023 74.5941 115.049 74.8221C115.075 75.0491 114.913 75.2541 114.686 75.2801C114.411 75.3121 114.147 75.3272 113.896 75.3272Z" fill="#311643"/>
<path d="M101.266 72.2751C103.731 72.2751 105.73 70.2764 105.73 67.811C105.73 65.3456 103.731 63.3469 101.266 63.3469C98.8003 63.3469 96.8018 65.3456 96.8018 67.811C96.8018 70.2764 98.8003 72.2751 101.266 72.2751Z" fill="#F49795"/>
<path d="M131.466 64.105C130.9 67.103 129.952 69.836 128.753 72.269C126.392 72.152 124.515 70.201 124.515 67.811C124.515 65.346 126.513 63.3481 128.978 63.3481C129.899 63.3471 130.755 63.626 131.466 64.105Z" fill="#F49795"/>
<path d="M123.997 54.2351C120.738 54.2351 118.047 56.7131 117.708 59.8831C115.936 59.0491 114.372 59.5011 113.547 59.8801C113.207 56.7111 110.517 54.2351 107.259 54.2351C103.771 54.2351 100.934 57.0721 100.934 60.5601C100.934 64.0481 103.772 66.885 107.259 66.885C110.668 66.885 113.455 64.173 113.578 60.793C114.102 60.496 115.785 59.7271 117.677 60.7981C117.803 64.1751 120.589 66.884 123.996 66.884C127.484 66.884 130.321 64.0471 130.321 60.5591C130.322 57.0731 127.485 54.2351 123.997 54.2351ZM107.259 66.0591C104.227 66.0591 101.761 63.593 101.761 60.561C101.761 57.53 104.227 55.063 107.259 55.063C110.29 55.063 112.757 57.529 112.757 60.561C112.757 63.592 110.29 66.0591 107.259 66.0591ZM123.997 66.0591C120.965 66.0591 118.499 63.593 118.499 60.561C118.499 57.53 120.965 55.063 123.997 55.063C127.029 55.063 129.495 57.529 129.495 60.561C129.495 63.592 127.029 66.0591 123.997 66.0591Z" fill="white"/>
<path d="M110.117 92.3469V84.8C106.417 83.783 102.205 81.292 99.0388 78.917L110.117 92.3469Z" fill="#F9AFAB"/>
<path d="M149.228 336.055H131.9L102.762 207.923L72.912 336.055H55.583L71.73 192.305L135.75 192.304L149.228 336.055Z" fill="#6277D7"/>
<path d="M133.275 343.022V355.268C133.275 356.696 134.433 357.854 135.861 357.854H170.595C170.925 357.854 171.193 357.586 171.193 357.256V354.898C171.193 353.867 170.603 352.927 169.675 352.479L150.09 343.023H133.275V343.022Z" fill="#2F3D6C"/>
<path d="M71.0269 343.022V355.268C71.0269 356.696 69.8689 357.854 68.4409 357.854H33.7069C33.3759 357.854 33.1089 357.586 33.1089 357.256V354.898C33.1089 353.867 33.6989 352.927 34.6269 352.479L54.2119 343.023H71.0269V343.022Z" fill="#2F3D6C"/>
<path d="M131.9 336.055L133.204 343.022H150.09L149.228 336.055H131.9Z" fill="#FCBEB7"/>
<path d="M55.5829 336.055L54.2129 343.022H71.0269L72.9119 336.055H55.5829Z" fill="#FCBEB7"/>
<path d="M71.3828 195.388L136.383 199.06L135.75 192.304L71.7298 192.305" fill="#4A5EA3"/>
<path d="M131.509 130.351L135.75 192.304H71.73L75.653 148.157L74.783 124.598L71.46 127.91L56.687 116.553L64.625 103.617C66.589 100.418 69.426 97.846 72.803 96.207L91.012 87.3691L91.678 87.0461L93.757 86.0371C93.757 86.0371 103.259 92.2731 110.09 86.0371L113.739 87.4131L114.481 87.6921L133.78 94.967C136.802 96.106 139.262 98.378 140.637 101.302L148.822 118.713L131.509 130.351Z" fill="#89AEFF"/>
<path d="M113.738 87.4141C110.607 89.6371 106.875 90.835 102.957 90.835C98.83 90.835 94.907 89.5051 91.678 87.0471L91.012 87.3701C94.405 90.0451 98.5699 91.4971 102.958 91.4971C107.165 91.4971 111.167 90.1631 114.481 87.6921L113.738 87.4141Z" fill="white"/>
<path d="M72.0079 98.3191C72.0079 101.358 69.5439 103.821 66.5049 103.821C65.8679 103.821 65.258 103.713 64.689 103.514C66.446 100.691 68.8869 98.3632 71.7789 96.7432C71.9279 97.2432 72.0079 97.7721 72.0079 98.3191Z" fill="#4A62D3"/>
<path d="M75.3338 257.775C79.915 257.775 83.6288 254.061 83.6288 249.48C83.6288 244.899 79.915 241.185 75.3338 241.185C70.7526 241.185 67.0388 244.899 67.0388 249.48C67.0388 254.061 70.7526 257.775 75.3338 257.775Z" fill="#4A5EA3"/>
<path d="M130.671 257.775C135.252 257.775 138.966 254.061 138.966 249.48C138.966 244.899 135.252 241.185 130.671 241.185C126.09 241.185 122.376 244.899 122.376 249.48C122.376 254.061 126.09 257.775 130.671 257.775Z" fill="#4A5EA3"/>
<path d="M103.475 184.102L51.3369 198.98C50.4789 199.225 49.5849 198.728 49.3409 197.87L39.9949 165.119C39.7499 164.261 40.2469 163.367 41.1049 163.123L93.2429 148.245C94.1009 148 94.9949 148.497 95.2389 149.355L104.585 182.107C104.83 182.963 104.333 183.857 103.475 184.102Z" fill="#4A5EA3"/>
<path d="M122.278 128.862H108.282C107.817 128.862 107.439 128.485 107.439 128.019V101.85C107.439 101.385 107.816 101.007 108.282 101.007H122.278C122.743 101.007 123.121 101.384 123.121 101.85V128.019C123.121 128.485 122.744 128.862 122.278 128.862Z" fill="#4A5EA3"/>
<path d="M160.49 146.296L148.821 118.713L139.917 124.666L127.408 113.704L124.851 104.938C124.815 104.658 124.595 104.438 124.316 104.401C123.09 104.239 122.039 105.272 122.179 106.5L122.618 110.34L117.976 110.955C116.724 111.121 115.451 111.011 114.246 110.632L109.927 109.274C108.63 108.866 107.251 109.601 106.867 110.905L105.2 110.519C104.386 110.331 103.571 110.825 103.361 111.633L103.349 111.677C103.169 112.372 103.491 113.099 104.128 113.431C103.788 114.76 104.577 116.117 105.901 116.478L105.939 116.488C105.582 117.827 106.243 119.228 107.504 119.804L110.772 121.297C112.001 121.859 113.348 122.114 114.697 122.04L122.121 121.436L147.33 154.385L147.335 154.391C149.565 157.052 153.366 157.967 156.624 156.443C160.438 154.661 162.15 150.169 160.49 146.296Z" fill="#FCBEB7"/>
<path d="M140.827 101.709C140.231 101.94 139.584 102.067 138.907 102.067C135.968 102.067 133.585 99.6841 133.585 96.7441C133.585 96.1351 133.688 95.5502 133.876 95.0042C136.854 96.1562 139.276 98.41 140.636 101.303L140.827 101.709Z" fill="#4A62D3"/>
<path d="M141.508 126.062L155.016 133.357L158.07 140.575L141.508 126.062Z" fill="#F9AFAB"/>
<path d="M71.6959 193.172L52.574 159.849L56.6199 158.695L71.6959 193.172Z" fill="#2F3D6C"/>
<path d="M152.822 155.251C155.72 155.251 158.07 152.901 158.07 150.003C158.07 147.105 155.72 144.755 152.822 144.755C149.924 144.755 147.574 147.105 147.574 150.003C147.574 152.901 149.924 155.251 152.822 155.251Z" fill="#F9AFAB"/>
<path d="M53.0949 135.063C53.0949 137.772 51.1599 140.03 48.5949 140.527L47.6579 138.347C46.7159 136.158 46.8609 133.652 48.0489 131.586L49.1178 129.726C51.4178 130.41 53.0949 132.541 53.0949 135.063Z" fill="#F9AFAB"/>
<path d="M85.96 187.138L79.449 184.232C78.998 184.031 78.6489 183.655 78.4799 183.191L77.5359 180.592L80.8259 181.399L81.8749 183.652C82.2279 184.41 83.12 184.751 83.889 184.42L82.5189 180.284C82.2629 179.626 81.7689 179.088 81.1349 178.776L74.2599 175.394L62.4 136.925L71.4609 127.911L56.6879 116.554L48.0499 131.587C46.8619 133.654 46.7179 136.159 47.6589 138.348L71.6329 193.172L76.3909 193.391C76.9629 193.418 77.5029 193.128 77.7969 192.637L78.3149 191.772L80.819 191.977C81.355 192.021 81.876 191.785 82.197 191.352L82.7859 190.557L83.137 190.65C84.096 190.903 85.103 190.465 85.572 189.591L87.3099 190.171C87.7019 188.965 87.12 187.655 85.96 187.138Z" fill="#FCBEB7"/>
<path d="M433.099 310.595H385.84V357.854H433.099V310.595Z" fill="#D2DCFF"/>
<path d="M385.84 310.595H359.807V357.854H385.84V310.595Z" fill="#AEC3FF"/>
<path d="M385.84 318.675H359.807V320.059H385.84V318.675Z" fill="#86A2E2"/>
<path d="M433.099 318.675H385.84V320.059H433.099V318.675Z" fill="#AEC3FF"/>
<path d="M418.164 326.825H400.774C400.444 326.825 400.176 326.557 400.176 326.227V326.192C400.176 325.862 400.444 325.594 400.774 325.594H418.164C418.494 325.594 418.762 325.862 418.762 326.192V326.227C418.762 326.558 418.494 326.825 418.164 326.825Z" fill="#86A2E2"/>
</svg>
